<svg xmlns="http://www.w3.org/2000/svg" xmlns:xlink="http://www.w3.org/1999/xlink" viewBox="0 0 606.7 85.95"><defs><style>.cls-1{fill:#ff931e;}.cls-1,.cls-3{stroke:#ff931e;stroke-miterlimit:10;stroke-width:2px;}.cls-2,.cls-3{fill:#fff;}.cls-4{fill:url(#linear-gradient);}.cls-5{fill:url(#linear-gradient-2);}</style><linearGradient id="linear-gradient" x1="458.33" y1="66.21" x2="490.15" y2="66.21" gradientUnits="userSpaceOnUse"><stop offset="0" stop-color="#cc31f4"/><stop offset="0.07" stop-color="#c726d3"/><stop offset="0.22" stop-color="#bf1293"/><stop offset="0.32" stop-color="#b9056a"/><stop offset="0.38" stop-color="#b7005b"/><stop offset="0.76" stop-color="#9e005d"/><stop offset="1" stop-color="#e33fff"/></linearGradient><linearGradient id="linear-gradient-2" x1="450.09" y1="68.98" x2="498.39" y2="68.98" xlink:href="#linear-gradient"/></defs><g id="Layer_2" data-name="Layer 2"><g id="Layer_1-2" data-name="Layer 1"><circle class="cls-1" cx="473.59" cy="42.97" r="41.97"/><path d="M473.6,83.31A40.18,40.18,0,0,0,473.6,3"/><path class="cls-2" d="M473.6,3a40.18,40.18,0,0,0,0,80.36"/><path class="cls-2" d="M480.15,34.14c6.84-7.68,20.74-7.2,27,1a32.63,32.63,0,0,0-27-1Z"/><path d="M467.05,34.14a32.63,32.63,0,0,0-27,1c6.25-8.19,20.14-8.67,27-1Z"/><path d="M463.93,36.72H444.6a1.76,1.76,0,0,0-1.73,1.47l-.51,3a1.76,1.76,0,0,0,3.12,1.37h0a1.75,1.75,0,0,1,3.12.9l.06.49a1.75,1.75,0,0,0,3.35.51l.42-1a1.63,1.63,0,0,1,3.08.29h0a1.63,1.63,0,0,0,3.15.09l.1-.36a1.63,1.63,0,0,1,3.06-.18l.49,1.14a1.76,1.76,0,0,0,3.37-.69V38.48A1.75,1.75,0,0,0,463.93,36.72Z"/><path class="cls-2" d="M460.37,68.75c1.42-1,11.67-7.26,28.15,0a.13.13,0,0,1,0,.23c-2,1-15.44,7.26-28.16,0A.14.14,0,0,1,460.37,68.75Z"/><path class="cls-3" d="M14.75,17.11q-7.6,9.81-7.61,26.1,0,19.08,9.41,28.7Q9.41,68.91,5.21,61A36.51,36.51,0,0,1,1,43.41,34,34,0,0,1,3.2,31a26.42,26.42,0,0,1,4.94-8.74A23.83,23.83,0,0,1,14.75,17.11ZM70.29,63.57h1.33L69.49,74.85a71.22,71.22,0,0,1-11.95,3.53,56.88,56.88,0,0,1-11.08,1.14q-16.16,0-25.3-9.41T12,42.94q0-17.76,9.82-27.17T47.59,6.43a70.16,70.16,0,0,1,23.5,4.2c-.36,5.61-.53,8.92-.53,9.95s0,1.84.06,2.73v1.61a63.44,63.44,0,0,1-.33,6.61H69.15Q65,11.37,46.06,11.37q-12.83,0-20.43,8.34T18,43.61q0,13.68,7,22.23t21,8.54a32.27,32.27,0,0,0,14.15-3.07A27.35,27.35,0,0,0,70.29,63.57Z"/><path class="cls-3" d="M93.85,14.47q-7.34,11.35-7.34,29,0,16,7,27.77Q80,62.4,80,42.84,80,22.74,93.85,14.47ZM150.06,43q0,12.28-3.74,20.76T136,76.22a28.36,28.36,0,0,1-15.28,4.07q-13.89,0-21.5-10T91.58,43q0-18.09,7.75-27.77t21.22-9.54q13.68,0,21.63,9.54T150.06,43Zm-6.28.07q0-32-23.23-32-22.76,0-22.76,32.78,0,30.84,23,30.84T143.78,43.11Zm3.87,28.57q7.28-9.89,7.28-29.78,0-17.55-7.21-27.36,13.75,8.21,13.75,28.1Q161.47,62.26,147.65,71.68Z"/><path class="cls-3" d="M184.17,7.79V78.15H181.3a52.58,52.58,0,0,0-5.28.4,55.92,55.92,0,0,1-7.21.4v-1.2a10,10,0,0,0,7.08-4.2q2.81-3.75,2.8-14.42V24.82q0-14.55-9.88-16.62V7Q173.08,7.47,184.17,7.79ZM191,78.15H189V7.79q4,0,8.54-.33Q202.79,7,206.06,7q9.15,0,13.62,5.61a21.11,21.11,0,0,1,4.47,13.68q0,13.83-11.68,17.69a22.68,22.68,0,0,1,9.74,3.48q4.22,2.86,12.75,11.48,13,13.21,21.23,13.21A6.21,6.21,0,0,0,259.6,71l.26,1.2a8.83,8.83,0,0,1-7.41,3.47q-5.07,0-10.61-3.8-5.21-3.61-15.55-14.16-12.42-12.81-24.17-12.81,7.27,2.27,19.69,15.28a149.48,149.48,0,0,0,14,13.22q5.34,4.14,10.21,4.14v.6a13.2,13.2,0,0,1-4.47.8,19.26,19.26,0,0,1-11.21-3.27,63,63,0,0,1-6.44-5.51q-3.91-3.7-9.38-9.57A130,130,0,0,0,202.66,49a27.75,27.75,0,0,0-8.08-4.41V60.4q0,15.95,9.61,17.35V79Q196.18,78.16,191,78.15Zm3.61-52V40.64a34.91,34.91,0,0,0,8.54,1q15,0,15-15.62,0-14.62-14.88-14.62-4.81,0-7.48,1.94Q194.58,16,194.58,26.15Zm30.24,14.42a27.83,27.83,0,0,0,4.34-15.15q0-7.55-5-15.16,11.47,4.88,11.48,15.36T224.82,40.57Z"/><path class="cls-3" d="M317.47,62l-5.94-12.42H286.36L280,62l-.33.86c-.05,0-.38.7-1,1.94a12.64,12.64,0,0,0-1.41,5.74q0,5.07,5.61,7.21V79a39.32,39.32,0,0,1-3.94-.33,60.89,60.89,0,0,0-7.07-.47,66.46,66.46,0,0,0-7.08.47c-1.91.22-3.18.33-3.8.33v-1.2q7.33-3.73,13.35-15.42l22.16-43.12a19.08,19.08,0,0,0-7-7.94A20.75,20.75,0,0,0,279.15,8.2V7h2.34c2.09,0,5,.14,8.61.4q5.75.41,7.48.4l33.71,70.36q-6.48.13-15.56.8v-1.2q5.08-.87,5.08-5.47Q320.81,68.88,317.47,62ZM289,44.57h20.16l-9.68-20.29Zm47.66,33.58L302.92,7.79h6.54q1.34,3.48,3.74,8.75,2.67,5.67,3,6.74a8.78,8.78,0,0,1,.6,1.4l15.69,32.51q8.2,16.95,17.49,20.56V79Q340.89,78.16,336.63,78.15Z"/><path class="cls-3" d="M410.92,7.79,359.19,78.15h-6.54L401,12.67H377.61q-11,0-15.48,2.47t-7,9.94h-1.54a99.84,99.84,0,0,1,1.14-10.54,41.58,41.58,0,0,0,.53-5.08c0-.13,0-1-.13-2.47a161.69,161.69,0,0,0,18.29.8ZM365.26,78.15,417.13,7.79h6.47L375.48,73.28H396.9q12.62,0,18-4.14a26.47,26.47,0,0,0,7.94-10.28h1.54q-.13,2.94-2.47,10.35A58.09,58.09,0,0,0,419.4,79q-9-.8-16.42-.8Z"/><path class="cls-3" d="M518.33,7.79l76.89,65.69V79h-1.33L533.41,27.49v31q0,10.14,2.6,14.08t8.21,5.14V79q-10.08-.8-13.68-.8-4.06,0-12.28.8v-1.2q5.73-1.34,7.81-5.41t2.07-14.41l-.07-34.85L523.26,19q-10-8.55-16.88-10.81V7Zm76.89,59.15L525.87,7.79h7.87l56.14,47.8V27.89A46.84,46.84,0,0,0,589,17.21a11.38,11.38,0,0,0-3.81-5.94A15.29,15.29,0,0,0,577.8,8.2V7l2.34.2q8.75.6,11.88.6,2.87,0,13.68-.8V8.2a10.83,10.83,0,0,0-6.07,2.87,11.51,11.51,0,0,0-3.47,5.6,37.51,37.51,0,0,0-.94,9.55Z"/><path class="cls-4" d="M459,68.87a20.89,20.89,0,0,1,7.08-4,25.45,25.45,0,0,1,16.24,0,20.82,20.82,0,0,1,7.08,4,75.53,75.53,0,0,0-7.65-1.7,46.65,46.65,0,0,0-15.1,0A74.43,74.43,0,0,0,459,68.87Z"/><path class="cls-5" d="M497,63.27a25.55,25.55,0,0,1-9.83,8.42,29.24,29.24,0,0,1-25.8,0,25.39,25.39,0,0,1-9.83-8.42,45.34,45.34,0,0,0,11,5.51,36.88,36.88,0,0,0,23.4,0A45,45,0,0,0,497,63.27Z"/></g></g></svg>