<svg xmlns="http://www.w3.org/2000/svg" viewBox="0 0 120 25.94"><defs><style>.cls-1{fill:#5c25ff;}.cls-2{fill:#fff;}</style></defs><g id="Layer_2" data-name="Layer 2"><g id="Layer_1-2" data-name="Layer 1"><rect class="cls-1" width="50.15" height="25.94" rx="3.17"/><path class="cls-2" d="M16.86,6V19.78H14.09L8.68,10.44c0,.23,0,.39,0,.46a4.85,4.85,0,0,1,0,.6v8.28H6.22V6H9.71l4.71,8.16q-.06-.62-.06-.93V6Z"/><path class="cls-2" d="M28.68,15.17H22.1c0,.18,0,.34,0,.48a2.17,2.17,0,0,0,.58,1.65,1.94,1.94,0,0,0,1.39.55,1.72,1.72,0,0,0,1.82-1.61l2.73.21A4.55,4.55,0,0,1,24,20a5.16,5.16,0,0,1-2.6-.61,4.8,4.8,0,0,1-1.76-1.79,5.46,5.46,0,0,1-.69-2.82,5.56,5.56,0,0,1,1.39-3.94,4.91,4.91,0,0,1,7-.1A6,6,0,0,1,28.68,15.17Zm-6.59-1.75h3.64c-.1-1.41-.68-2.11-1.74-2.11S22.22,12,22.09,13.42Z"/><path class="cls-2" d="M43.93,9.55,40.84,19.78H38.18l-1.62-6.59L35,19.78H32.42L29.25,9.55H32.4l1.67,6.25,1.57-6.25h2.73l1.5,6.29,1.74-6.29Z"/><path d="M63.87,19.92H60.94a7.57,7.57,0,0,1-.14-1.6,4.21,4.21,0,0,1-1.53,1.46,4,4,0,0,1-1.74.35,3.39,3.39,0,0,1-2.32-.78,2.63,2.63,0,0,1-.88-2.09,3.29,3.29,0,0,1,.51-1.78,3.44,3.44,0,0,1,1.66-1.27,15.8,15.8,0,0,1,4.17-.68v-.59a1.32,1.32,0,0,0-1.49-1.49,1.56,1.56,0,0,0-1.76,1.49l-2.79-.26a3.16,3.16,0,0,1,1.65-2.48,6.65,6.65,0,0,1,3.12-.73,7.81,7.81,0,0,1,2,.25,3.26,3.26,0,0,1,1.44.73,2.59,2.59,0,0,1,.7,1,6.77,6.77,0,0,1,.18,1.89V18A7.09,7.09,0,0,0,63.87,19.92ZM60.67,15c-2.11.21-3.16.85-3.16,1.91a1.39,1.39,0,0,0,.33.93,1.18,1.18,0,0,0,.95.39,1.67,1.67,0,0,0,1.34-.66A2.53,2.53,0,0,0,60.67,16Z"/><path d="M69.11,19.92H66.18V9.69H69v1.9c.42-1.42,1.16-2.13,2.21-2.13l.54,0v3a3,3,0,0,0-1.43.29,2.09,2.09,0,0,0-.84,1,5.11,5.11,0,0,0-.32,2Z"/><path d="M76.32,19.92H73.39V9.69h2.76v1.9c.43-1.42,1.16-2.13,2.21-2.13l.55,0v3a2.94,2.94,0,0,0-1.43.29,2,2,0,0,0-.84,1,4.93,4.93,0,0,0-.32,2Z"/><path d="M83.61,5.81v3h-3v-3Zm0,3.88V19.92h-3V9.69Z"/><path d="M94.15,9.69,90.64,19.92H88.29L84.78,9.69h3.14l2,6.48,2-6.48Z"/><path d="M104.09,19.92h-2.93a7.57,7.57,0,0,1-.14-1.6,4.21,4.21,0,0,1-1.53,1.46,4,4,0,0,1-1.74.35,3.37,3.37,0,0,1-2.32-.78,2.63,2.63,0,0,1-.88-2.09,3.29,3.29,0,0,1,.51-1.78,3.39,3.39,0,0,1,1.66-1.27,15.8,15.8,0,0,1,4.17-.68v-.59a1.32,1.32,0,0,0-1.49-1.49,1.56,1.56,0,0,0-1.76,1.49l-2.79-.26A3.16,3.16,0,0,1,96.5,10.2a6.65,6.65,0,0,1,3.12-.73,7.81,7.81,0,0,1,2,.25,3.26,3.26,0,0,1,1.44.73,2.59,2.59,0,0,1,.7,1,6.77,6.77,0,0,1,.18,1.89V18A7.09,7.09,0,0,0,104.09,19.92Zm-3.2-4.9c-2.11.21-3.16.85-3.16,1.91a1.39,1.39,0,0,0,.33.93,1.18,1.18,0,0,0,1,.39,1.67,1.67,0,0,0,1.34-.66,2.53,2.53,0,0,0,.54-1.64Z"/><path d="M106.4,19.92V6.09h3V19.92Z"/><path d="M119.56,12.16l-2.19.59a1.84,1.84,0,0,0-2-1.39c-1,0-1.52.31-1.52.92a.7.7,0,0,0,.28.59,3.7,3.7,0,0,0,1.45.37,13.39,13.39,0,0,1,2.6.53,2.71,2.71,0,0,1,1.33,1,3.08,3.08,0,0,1,.49,1.78,3.18,3.18,0,0,1-1.2,2.57,5.14,5.14,0,0,1-3.36,1c-2.61,0-4.16-1-4.67-3l2.54-.38c.21.92,1,1.38,2.27,1.38a2.74,2.74,0,0,0,1.27-.27.82.82,0,0,0,.52-.73c0-.47-.39-.75-1.15-.84a8.59,8.59,0,0,1-4.08-1.19,2.74,2.74,0,0,1-1-2.24,3,3,0,0,1,1.14-2.41,4.79,4.79,0,0,1,3.18-1,4.68,4.68,0,0,1,2.59.64A4,4,0,0,1,119.56,12.16Z"/></g></g></svg>