<svg xmlns="http://www.w3.org/2000/svg" viewBox="0 0 120 31.49"><defs><style>.cls-1{fill:#ff0b20;}.cls-2{fill:#fff;}</style></defs><g id="Layer_2" data-name="Layer 2"><g id="Layer_1-2" data-name="Layer 1"><rect class="cls-1" width="60.89" height="31.49" rx="3.85"/><path class="cls-2" d="M14.08,9.84l-3,1A2.42,2.42,0,0,0,8.58,9.07c-1.37,0-2.06.44-2.06,1.34a1.2,1.2,0,0,0,.39.9A3.79,3.79,0,0,0,8.65,12a17.81,17.81,0,0,1,3.33.93,4.27,4.27,0,0,1,1.78,1.51,4,4,0,0,1,.72,2.32,4.65,4.65,0,0,1-1.55,3.48,6.47,6.47,0,0,1-4.6,1.47,7,7,0,0,1-3.89-1,5,5,0,0,1-2.11-3.08l3.22-.73a2.74,2.74,0,0,0,3,2.08,2.83,2.83,0,0,0,1.78-.47,1.36,1.36,0,0,0,.59-1.1,1.15,1.15,0,0,0-.53-1,6.41,6.41,0,0,0-2.06-.68,9.41,9.41,0,0,1-4-1.6,3.68,3.68,0,0,1-1.21-3A4.4,4.4,0,0,1,4.54,7.71,5.46,5.46,0,0,1,8.45,6.35C11.37,6.35,13.24,7.51,14.08,9.84Z"/><path class="cls-2" d="M26,10.44v11H23V19.56a3.19,3.19,0,0,1-3.24,2.1,3.33,3.33,0,0,1-1.91-.46,2.56,2.56,0,0,1-.95-1.26,7.28,7.28,0,0,1-.29-2.32V10.44h3.15v7.18c0,1,.4,1.49,1.22,1.49A1.67,1.67,0,0,0,22,18.75a1.58,1.58,0,0,0,.59-.76,5.37,5.37,0,0,0,.12-1.38V10.44Z"/><path class="cls-2" d="M28.67,25.15V10.44h3v1.61a2.92,2.92,0,0,1,2.89-1.84,3.59,3.59,0,0,1,2.93,1.43,6.64,6.64,0,0,1,1.13,4.17,7.11,7.11,0,0,1-1.14,4.38,3.63,3.63,0,0,1-3,1.47,2.8,2.8,0,0,1-2.66-1.44v4.93Zm3.15-8.53A6.29,6.29,0,0,0,32,18.23a1.68,1.68,0,0,0,.6.8,1.59,1.59,0,0,0,1,.36,1.51,1.51,0,0,0,1.19-.68,5.59,5.59,0,0,0,.52-3c0-2.17-.57-3.26-1.72-3.26a1.63,1.63,0,0,0-1.19.58,2.91,2.91,0,0,0-.53,2Z"/><path class="cls-2" d="M50.58,16.48H43.5c0,.2,0,.37,0,.51a2.34,2.34,0,0,0,.63,1.78,2.06,2.06,0,0,0,1.49.6,1.85,1.85,0,0,0,2-1.73l2.94.21a4.89,4.89,0,0,1-5,3.81A5.54,5.54,0,0,1,42.71,21a5.13,5.13,0,0,1-1.89-1.92,5.81,5.81,0,0,1-.75-3,6,6,0,0,1,1.5-4.24,5.29,5.29,0,0,1,7.49-.11Q50.58,13.21,50.58,16.48ZM43.49,14.6H47.4c-.1-1.51-.72-2.27-1.86-2.27S43.64,13.09,43.49,14.6Z"/><path class="cls-2" d="M55.77,21.43H52.62v-11h3v2.05C56.05,11,56.84,10.2,58,10.2l.59,0v3.2a3.11,3.11,0,0,0-1.54.31,2.18,2.18,0,0,0-.9,1.09A5.43,5.43,0,0,0,55.77,17Z"/><path d="M67.09,8.2h4.54A8.67,8.67,0,0,1,75.76,9,7.15,7.15,0,0,1,78.2,11.4a7.6,7.6,0,0,1,1.07,4.19,7.73,7.73,0,0,1-1.88,5.33,6.53,6.53,0,0,1-5.19,2.14H67.09Zm3.42,2.73v9.33h1.43a3.14,3.14,0,0,0,2.83-1.42,5.93,5.93,0,0,0,.92-3.33,5.92,5.92,0,0,0-.52-2.5,3.51,3.51,0,0,0-1.31-1.61A3.64,3.64,0,0,0,72,10.93Z"/><path d="M91.27,18.11H84.19c0,.19,0,.37,0,.51a2.36,2.36,0,0,0,.63,1.78,2.13,2.13,0,0,0,1.5.59,1.84,1.84,0,0,0,2-1.73l2.93.22a4.88,4.88,0,0,1-5,3.81,5.49,5.49,0,0,1-2.79-.66,5.22,5.22,0,0,1-1.9-1.92,5.82,5.82,0,0,1-.74-3,6,6,0,0,1,1.49-4.23,5,5,0,0,1,3.85-1.61,5,5,0,0,1,3.64,1.5Q91.27,14.83,91.27,18.11Zm-7.09-1.88h3.91C88,14.72,87.37,14,86.23,14S84.33,14.72,84.18,16.23Z"/><path d="M102.91,23.06H99.76a7.93,7.93,0,0,1-.15-1.72A4.39,4.39,0,0,1,98,22.9a4.27,4.27,0,0,1-1.86.39,3.65,3.65,0,0,1-2.5-.84,2.86,2.86,0,0,1-.95-2.25,3.49,3.49,0,0,1,.56-1.91A3.62,3.62,0,0,1,95,16.93a17,17,0,0,1,4.48-.74v-.63a1.41,1.41,0,0,0-1.6-1.6,1.68,1.68,0,0,0-1.9,1.6l-3-.28a3.42,3.42,0,0,1,1.77-2.66,7.12,7.12,0,0,1,3.36-.78,8.41,8.41,0,0,1,2.11.26,3.59,3.59,0,0,1,1.55.78,2.74,2.74,0,0,1,.75,1.11,7.26,7.26,0,0,1,.19,2v5A7.57,7.57,0,0,0,102.91,23.06Zm-3.44-5.27c-2.27.23-3.4.91-3.4,2.06a1.48,1.48,0,0,0,.36,1,1.27,1.27,0,0,0,1,.42,1.79,1.79,0,0,0,1.44-.72,2.67,2.67,0,0,0,.58-1.76Z"/><path d="M105.39,23.06V8.2h3.24V23.06Z"/><path d="M119.53,14.72l-2.36.63A2,2,0,0,0,115,13.86c-1.08,0-1.63.33-1.63,1a.74.74,0,0,0,.3.62,3.88,3.88,0,0,0,1.56.4,15.37,15.37,0,0,1,2.79.57,2.91,2.91,0,0,1,1.43,1.1,3.33,3.33,0,0,1,.53,1.91,3.41,3.41,0,0,1-1.29,2.76,5.46,5.46,0,0,1-3.61,1.07q-4.2,0-5-3.25l2.74-.41c.22,1,1,1.48,2.43,1.48a2.82,2.82,0,0,0,1.36-.29.87.87,0,0,0,.56-.78c0-.5-.41-.81-1.23-.9-2.22-.27-3.68-.7-4.38-1.28a2.94,2.94,0,0,1-1-2.41,3.22,3.22,0,0,1,1.22-2.59,5.16,5.16,0,0,1,3.41-1,5.07,5.07,0,0,1,2.79.68A4.27,4.27,0,0,1,119.53,14.72Z"/></g></g></svg>